<svg width="100%" height="100%" id="svg" viewBox="0 0 1440 490" xmlns="http://www.w3.org/2000/svg" class="transition duration-300 ease-in-out delay-150"><defs><linearGradient id="gradient" x1="100%" y1="55%" x2="0%" y2="45%"><stop offset="5%" stop-color="#0c9968"></stop><stop offset="95%" stop-color="#9aa9a6"></stop></linearGradient></defs><path d="M 0,500 C 0,500 0,125 0,125 C 50.935935198821795,132.63033873343153 101.87187039764359,140.26067746686303 171,142 C 240.1281296023564,143.73932253313697 327.4484536082474,139.5876288659794 386,133 C 444.5515463917526,126.4123711340206 474.33431516936673,117.38880706921944 520,122 C 565.6656848306333,126.61119293078056 627.2142857142858,144.85714285714286 686,143 C 744.7857142857142,141.14285714285714 800.8085419734904,119.18262150220912 871,120 C 941.1914580265096,120.81737849779088 1025.5515463917527,144.41237113402062 1089,147 C 1152.4484536082473,149.58762886597938 1194.9852724594994,131.1678939617084 1250,124 C 1305.0147275405006,116.83210603829161 1372.5073637702503,120.9160530191458 1440,125 C 1440,125 1440,500 1440,500 Z" stroke="none" stroke-width="0" fill="url(#gradient)" fill-opacity="0.4" class="transition-all duration-300 ease-in-out delay-150 path-0" transform="rotate(-180 720 250)"></path><defs><linearGradient id="gradient" x1="100%" y1="55%" x2="0%" y2="45%"><stop offset="5%" stop-color="#0c9968"></stop><stop offset="95%" stop-color="#9aa9a6"></stop></linearGradient></defs><path d="M 0,500 C 0,500 0,250 0,250 C 74.74889543446245,267.23361561119293 149.4977908689249,284.46723122238586 198,283 C 246.5022091310751,281.53276877761414 268.7577319587629,261.3646907216495 329,262 C 389.2422680412371,262.6353092783505 487.47128129602356,284.07400589101627 560,272 C 632.5287187039764,259.92599410898373 679.3571428571429,214.3392857142857 734,210 C 788.6428571428571,205.6607142857143 851.100147275405,242.56885125184093 917,249 C 982.899852724595,255.43114874815907 1052.2422680412371,231.3853092783505 1112,235 C 1171.7577319587629,238.6146907216495 1221.9307805596466,269.889911634757 1275,277 C 1328.0692194403534,284.110088365243 1384.0346097201768,267.0550441826215 1440,250 C 1440,250 1440,500 1440,500 Z" stroke="none" stroke-width="0" fill="url(#gradient)" fill-opacity="0.53" class="transition-all duration-300 ease-in-out delay-150 path-1" transform="rotate(-180 720 250)"></path><defs><linearGradient id="gradient" x1="100%" y1="55%" x2="0%" y2="45%"><stop offset="5%" stop-color="#0c9968"></stop><stop offset="95%" stop-color="#9aa9a6"></stop></linearGradient></defs><path d="M 0,500 C 0,500 0,375 0,375 C 74.16237113402062,364.6671575846833 148.32474226804123,354.3343151693667 205,356 C 261.67525773195877,357.6656848306333 300.8634020618557,371.3298969072165 346,384 C 391.1365979381443,396.6701030927835 442.221649484536,408.3460972017673 512,416 C 581.778350515464,423.6539027982327 670.25,427.28571428571433 744,409 C 817.75,390.71428571428567 876.7783505154638,350.5110456553756 928,352 C 979.2216494845362,353.4889543446244 1022.6365979381444,396.6701030927835 1076,407 C 1129.3634020618556,417.3298969072165 1192.6752577319587,394.80854197349043 1255,384 C 1317.3247422680413,373.19145802650957 1378.6623711340208,374.09572901325475 1440,375 C 1440,375 1440,500 1440,500 Z" stroke="none" stroke-width="0" fill="url(#gradient)" fill-opacity="1" class="transition-all duration-300 ease-in-out delay-150 path-2" transform="rotate(-180 720 250)"></path></svg>