<svg width="100%" height="100%" id="svg" viewBox="0 0 1440 590" xmlns="http://www.w3.org/2000/svg" class="transition duration-300 ease-in-out delay-150"><path d="M 0,600 C 0,600 0,150 0,150 C 69.61319134318106,119.30127104087943 139.22638268636211,88.60254208175886 207,99 C 274.7736173136379,109.39745791824114 340.70766059773274,160.89110271384405 414,174 C 487.29233940226726,187.10889728615595 567.942974922707,161.83304706286498 625,168 C 682.057025077293,174.16695293713502 715.5204397114393,211.776709034696 789,202 C 862.4795602885607,192.223290965304 975.9752662315354,135.0601167983511 1059,113 C 1142.0247337684646,90.93988320164893 1194.5784953624184,103.98282377189969 1253,116 C 1311.4215046375816,128.0171762281003 1375.7107523187908,139.00858811405016 1440,150 C 1440,150 1440,600 1440,600 Z" stroke="none" stroke-width="0" fill="#0c9968" fill-opacity="0.4" class="transition-all duration-300 ease-in-out delay-150 path-0" transform="rotate(-180 720 300)"></path><path d="M 0,600 C 0,600 0,300 0,300 C 50.15183785640673,297.8268636207489 100.30367571281346,295.65372724149773 182,287 C 263.69632428718654,278.34627275850227 376.93713500515287,263.2119546547578 449,277 C 521.0628649948471,290.7880453452422 551.947784266575,333.498454139471 608,343 C 664.052215733425,352.501545860529 745.271727928547,328.79422878735824 812,309 C 878.728272071453,289.20577121264176 930.9653040192372,273.3246307110959 993,271 C 1055.0346959807628,268.6753692889041 1126.8670559945037,279.9072483682583 1203,287 C 1279.1329440054963,294.0927516317417 1359.566472002748,297.0463758158709 1440,300 C 1440,300 1440,600 1440,600 Z" stroke="none" stroke-width="0" fill="#0c9968" fill-opacity="0.53" class="transition-all duration-300 ease-in-out delay-150 path-1" transform="rotate(-180 720 300)"></path><path d="M 0,600 C 0,600 0,450 0,450 C 62.51528684300928,477.45791824115423 125.03057368601856,504.91583648230846 201,490 C 276.96942631398144,475.08416351769154 366.39299209893505,417.79457231192026 430,408 C 493.60700790106495,398.20542768807974 531.3974579182412,435.9058742700103 595,464 C 658.6025420817588,492.0941257299897 748.0171762281002,510.58193060803853 815,499 C 881.9828237718998,487.41806939196147 926.5338371693576,445.76640329783584 991,437 C 1055.4661628306424,428.23359670216416 1139.8474750944692,452.35245620061835 1218,460 C 1296.1525249055308,467.64754379938165 1368.0762624527654,458.8237718996908 1440,450 C 1440,450 1440,600 1440,600 Z" stroke="none" stroke-width="0" fill="#0c9968" fill-opacity="1" class="transition-all duration-300 ease-in-out delay-150 path-2" transform="rotate(-180 720 300)"></path></svg>